<?xml version="1.0" encoding="UTF-8"?>
<svg version="1.1" xmlns="http://www.w3.org/2000/svg" width="4657" height="3737">
<path d="M0 0 C3.006818 1.33999498 4.99762609 2.79845291 7.25 5.1875 C10.98609412 9.02584512 14.93187498 12.51868718 19 16 C20.04307122 16.89571402 21.08603145 17.7915573 22.12890625 18.6875 C24.51317413 20.73465012 26.90039405 22.7782996 29.2890625 24.8203125 C31.7082138 26.88970698 34.11938733 28.96777307 36.5234375 31.0546875 C43.93634842 37.47726848 51.50546873 43.63917098 59.25878906 49.64550781 C60.98954357 50.99186592 62.71104525 52.34916107 64.4296875 53.7109375 C72.50128507 60.1042026 80.67152269 66.35423529 88.94775391 72.48046875 C90.27739464 73.46496601 91.60530904 74.45180083 92.93115234 75.44140625 C163.31124237 127.87376969 242.18510829 170.63399695 371.07580566 221.31500244 C373.02817315 222.01002941 374.97857957 222.71034677 376.92871094 223.41162109 C433.77108601 243.80494773 492.66781061 258.9028043 552 270 C552.85043884 270.15921936 553.70087769 270.31843872 554.5770874 270.48248291 C611.20187732 281.02853122 668.52920683 287.45610441 726.125 288.5625 C728.25912045 288.60583157 730.39323511 288.64944969 732.52734375 288.69335938 C737.68483518 288.79886525 742.84238873 288.90053224 748 289 C767.63060105 376.96248602 779.83028211 466.02471805 785 556 C785.05441254 556.90266602 785.10882507 557.80533203 785.16488647 558.73535156 C786.35557661 579.05696599 786.1873181 599.42596254 786.18530273 619.77441406 C786.18522202 623.89620402 786.19209049 628.01788153 786.20581055 632.13964844 C786.29530786 659.48958256 785.76864425 686.70381816 784 714 C783.88644669 715.75579376 783.88644669 715.75579376 783.77059937 717.54705811 C783.3371414 724.01747444 782.82279349 730.47803577 782.25 736.9375 C782.12594788 738.362332 782.12594788 738.362332 781.99938965 739.81594849 C774.6622761 823.43836782 758.788839 905.52201232 734.51953125 985.8671875 C734.27844131 986.66679901 734.03735138 987.46641052 733.78895569 988.29025269 C732.12258925 993.7548215 732.12258925 993.7548215 731 996 C726.24208356 994.61719518 722.2530005 992.54007612 718.07421875 989.9375 C716.74036249 989.12191993 715.40620673 988.3068295 714.07177734 987.4921875 C713.39499939 987.07678711 712.71822144 986.66138672 712.02093506 986.23339844 C708.87228408 984.31174283 705.69634993 982.43709009 702.51953125 980.5625 C701.25551691 979.81445648 699.99160216 979.06624466 698.7277832 978.31787109 C698.09006989 977.94039734 697.45235657 977.56292358 696.7953186 977.17401123 C685.76020288 970.64020639 674.75969484 964.05505444 663.8125 957.375 C653.83124543 951.28456289 643.77951551 945.32727838 633.67843628 939.43795776 C624.68831269 934.19378184 615.76030359 928.85729369 606.875 923.4375 C594.50777259 915.89534227 582.06415051 908.48781358 569.59130859 901.12158203 C563.07814809 897.27455933 556.56898407 893.42080293 550.0625 889.5625 C549.38855194 889.16293091 548.71460388 888.76336182 548.02023315 888.35168457 C538.00191812 882.40906594 528.03259752 876.39037887 518.08914185 870.32351685 C508.68257696 864.58774148 499.20130085 858.98979474 489.68347168 853.440979 C480.58654248 848.13499832 471.55375472 842.73306696 462.5625 837.25 C451.79437262 830.68451046 440.96966218 824.22403314 430.10058594 817.82714844 C423.85253112 814.14522385 417.61270099 810.44943289 411.375 806.75 C410.35078445 806.14267029 410.35078445 806.14267029 409.30587769 805.52307129 C399.19363727 799.5236812 389.12906148 793.45037495 379.0925293 787.3253479 C369.64989495 781.56615208 360.12807816 775.95324377 350.57086182 770.38668823 C337.576511 762.81243742 324.76919981 754.94697 312 747 C315.90494476 745.56206148 319.05575609 746.38356471 323.06604004 747.18156433 C323.77813519 747.32081198 324.49023034 747.46005962 325.22390413 747.60352689 C327.61255396 748.0728004 329.99855794 748.55436294 332.38476562 749.03588867 C334.09657916 749.37481408 335.808543 749.71298107 337.52064514 750.05044556 C342.17812075 750.97070678 346.83341211 751.90161537 351.48839378 752.83439803 C356.37454657 753.81162771 361.2626293 754.77910577 366.1505127 755.74763489 C375.43171271 757.5882422 384.71113464 759.43765894 393.98995829 761.29020435 C404.46957619 763.38204875 414.95113287 765.46409301 425.43286991 767.54528844 C441.8048154 770.79624624 458.1756566 774.05271194 474.54492188 777.31713867 C475.3466086 777.47700445 476.14829533 777.63687023 476.97427559 777.80158043 C488.98373295 780.19664227 500.99203212 782.59748259 513 785 C513.05290192 784.33240662 513.10580383 783.66481323 513.16030884 782.97698975 C513.61808812 777.33173728 514.27557878 771.72677362 515.05078125 766.1171875 C517.64421432 747.23803668 519.71934183 728.37165567 521.25 709.375 C521.33263092 708.36080994 521.41526184 707.34661987 521.50039673 706.30169678 C522.04664917 699.53744112 522.54539263 692.77102409 523 686 C523.05514771 685.19572571 523.11029541 684.39145142 523.16711426 683.56280518 C524.35633212 665.50091155 524.2377189 647.38079037 524.24838257 629.28797531 C524.24946516 627.50557785 524.2511996 625.72318067 524.25357056 623.94078445 C524.29483606 592.19626713 523.31737211 560.66869782 521 529 C520.32489883 528.94942947 519.64979767 528.89885895 518.95423889 528.84675598 C512.45099205 528.31440377 506.14152949 527.41450757 499.74609375 526.13671875 C498.78847641 525.94911987 497.83085907 525.761521 496.84422302 525.5682373 C493.70695592 524.94950659 490.57202649 524.31996169 487.4375 523.6875 C486.34576477 523.4682486 485.25402954 523.24899719 484.12921143 523.02310181 C389.89824467 504.02292904 297.79258055 475.7571345 145 410 C144.02240723 409.54351074 143.04481445 409.08702148 142.03759766 408.61669922 C130.35723982 403.15853096 118.88681008 397.40390021 107.51464844 391.33154297 C104.85472565 389.92307511 102.18322969 388.53895328 99.5078125 387.16015625 C85.81235993 380.09807247 72.34284328 372.70710191 59 365 C58.42858276 364.67004028 57.85716553 364.34008057 57.26843262 364.00012207 C42.99580996 355.75304987 28.79240872 347.42249066 14.91796875 338.515625 C14.27005371 338.10505859 13.62213867 337.69449219 12.95458984 337.27148438 C11.57977292 336.37714931 10.22740613 335.44781472 8.89306641 334.49414062 C8.2026123 334.01654297 7.5121582 333.53894531 6.80078125 333.046875 C6.19016846 332.60698242 5.57955566 332.16708984 4.95043945 331.71386719 C2.94552371 330.76516676 2.94552371 330.76516676 0.61206055 331.66479492 C-2.20712674 333.10587682 -4.89849733 334.65398776 -7.59375 336.31640625 C-8.69130615 336.98937744 -9.7888623 337.66234863 -10.91967773 338.35571289 C-11.50159882 338.71456573 -12.0835199 339.07341858 -12.68307495 339.44314575 C-15.82522337 341.37893126 -18.97713928 343.298678 -22.12890625 345.21875 C-22.78109634 345.6162294 -23.43328644 346.0137088 -24.10523987 346.42323303 C-55.09597073 365.28299473 -86.8263823 382.64171841 -119.16656494 399.0670166 C-121.86827296 400.44183962 -124.56444986 401.82743025 -127.26171875 403.2109375 C-143.26410977 411.3689928 -159.58788199 418.79690039 -175.99145508 426.10479736 C-177.89812129 426.95459295 -179.80364112 427.80691131 -181.70898438 428.65966797 C-269.49709868 467.81721648 -362.05494062 497.31276171 -494.8125 525.0625 C-495.6056662 525.21497192 -496.3988324 525.36744385 -497.21603394 525.52453613 C-499.44119547 525.95029991 -501.66752996 526.36913556 -503.89453125 526.78515625 C-505.15112549 527.02113525 -506.40771973 527.25711426 -507.70239258 527.50024414 C-510.55343724 527.93232295 -513.12974352 528.03908267 -516 528 C-516.79165188 548.21357475 -517.20436258 568.39381236 -517.1875 588.625 C-517.18723312 589.30068401 -517.18696625 589.97636803 -517.18669128 590.67252731 C-517.14350887 678.40065411 -507.41670998 765.78309232 -420 1036 C-419.70782593 1036.60497314 -419.41565186 1037.20994629 -419.11462402 1037.83325195 C-411.46759156 1053.63353334 -403.35431329 1069.10445177 -394.55712891 1084.29589844 C-393.02282646 1086.96035969 -391.51349416 1089.63740434 -390.01171875 1092.3203125 C-382.79396977 1105.1793147 -375.05207134 1117.64789546 -367 1130 C-366.54915039 1130.69287109 -366.09830078 1131.38574219 -365.63378906 1132.09960938 C-350.81594576 1154.79485416 -334.91771639 1176.82591548 -318 1198 C-316.94039062 1199.33417969 -316.94039062 1199.33417969 -315.859375 1200.6953125 C-313.91493316 1203.13734773 -311.9605905 1205.57091499 -310 1208 C-309.31679687 1208.84691406 -308.63359375 1209.69382812 -307.9296875 1210.56640625 C-299.16300526 1221.3597946 -290.13425342 1231.90050872 -280.66796875 1242.0859375 C-278.59815611 1244.3466699 -276.5679187 1246.6271078 -274.5546875 1248.9375 C-263.75428835 1261.31784159 -252.16412552 1272.93972564 -240.5625 1284.5625 C-239.90506805 1285.22252014 -239.24763611 1285.88254028 -238.57028198 1286.56256104 C-229.39389686 1295.80370811 -229.39389686 1295.80370811 -219.72485352 1304.52026367 C-216.60940534 1307.19297866 -213.66600831 1310.05183699 -210.6875 1312.875 C-205.48896569 1317.76849848 -200.18009647 1322.4111012 -194.59765625 1326.8671875 C-191.86445114 1329.11129275 -189.27863407 1331.46867753 -186.6875 1333.875 C-182.15936424 1338.03806682 -177.46486729 1341.86214306 -172.60302734 1345.61938477 C-168.64316735 1348.68633515 -164.76760927 1351.83554957 -160.92480469 1355.04785156 C-152.01788305 1362.48881661 -142.81462376 1369.42558359 -133.42041016 1376.23681641 C-130.98227238 1378.01291395 -128.55761924 1379.80596027 -126.13671875 1381.60546875 C-116.23642666 1388.96317218 -106.23584457 1396.11717182 -96 1403 C-94.50605713 1404.00619385 -94.50605713 1404.00619385 -92.98193359 1405.03271484 C-78.79337948 1414.57606972 -64.5572492 1424.02495487 -50 1433 C-48.4523999 1433.95640381 -48.4523999 1433.95640381 -46.87353516 1434.93212891 C-34.0439461 1442.84306115 -21.13811395 1450.62651601 -8.0625 1458.125 C-7.02077637 1458.73520996 -5.97905273 1459.34541992 -4.90576172 1459.97412109 C-3.93783691 1460.52148926 -2.96991211 1461.06885742 -1.97265625 1461.6328125 C-0.70820679 1462.35815186 -0.70820679 1462.35815186 0.58178711 1463.09814453 C3.58789373 1464.21925083 4.96788479 1463.98377914 8 1463 C10.55514523 1461.83307695 10.55514523 1461.83307695 13.1484375 1460.33203125 C14.14190186 1459.77580078 15.13536621 1459.21957031 16.15893555 1458.64648438 C17.22023682 1458.04126953 18.28153809 1457.43605469 19.375 1456.8125 C20.48335205 1456.18537109 21.5917041 1455.55824219 22.73364258 1454.91210938 C76.61722174 1424.237502 128.45546112 1388.84568484 176.30419922 1349.39599609 C178.75604261 1347.37761998 181.22330562 1345.37826594 183.6875 1343.375 C189.27963074 1338.79279138 194.80053889 1334.12917727 200.30419922 1329.44140625 C202.00234846 1327.99800384 203.70590193 1326.56118577 205.41015625 1325.125 C212.27963211 1319.31348754 218.9597713 1313.34002149 225.49951172 1307.15893555 C228.82145888 1304.01977496 232.18420799 1300.94033212 235.60180664 1297.90527344 C240.9486586 1293.09803358 246.05935379 1288.0853131 251.13671875 1282.99609375 C252.06039749 1282.07337173 252.98407623 1281.15064972 253.93574524 1280.19996643 C255.87260576 1278.26456483 257.8076859 1276.3274062 259.74145508 1274.38891602 C262.19875809 1271.92590071 264.66054759 1269.4674263 267.12369061 1267.01025295 C269.5054811 1264.63297682 271.8834202 1262.25186337 274.26171875 1259.87109375 C275.13479172 1259.00004501 276.00786469 1258.12899628 276.90739441 1257.23155212 C281.27014023 1252.85219925 285.49877749 1248.41628926 289.51890564 1243.71920776 C291.89010803 1240.96679059 294.39001795 1238.33675421 296.875 1235.6875 C301.31465293 1230.91589105 305.51659141 1226.0183201 309.59765625 1220.93359375 C312.44961575 1217.45095703 315.40842125 1214.07238707 318.375 1210.6875 C323.98039491 1204.26478667 329.30592074 1197.67282975 334.51074219 1190.92333984 C336.14557387 1188.81199493 337.794484 1186.71213969 339.4453125 1184.61328125 C346.54383209 1175.57171516 353.41758547 1166.42349221 360 1157 C360.71542969 1155.98164062 361.43085938 1154.96328125 362.16796875 1153.9140625 C363.78302053 1151.61237195 365.39291743 1149.30725387 367 1147 C360.2792047 1142.3644232 353.34197022 1138.22648074 346.25 1134.1875 C343.93437302 1132.86027469 341.61918418 1131.53231733 339.3046875 1130.203125 C338.70850616 1129.861035 338.11232483 1129.51894501 337.49807739 1129.16648865 C330.76559085 1125.29912616 324.0694791 1121.37016669 317.375 1117.4375 C314.92454037 1115.99859367 312.47399128 1114.55983973 310.0234375 1113.12109375 C309.12884827 1112.59578316 309.12884827 1112.59578316 308.21618652 1112.05986023 C302.48420074 1108.6949872 296.74293123 1105.34614581 291 1102 C282.26356698 1096.90820041 273.53540067 1091.80243481 264.8125 1086.6875 C263.90451157 1086.15508194 263.90451157 1086.15508194 262.97817993 1085.61190796 C258.0303904 1082.71052227 253.08299871 1079.80845842 248.13562012 1076.90637207 C243.81976349 1074.37476856 239.50375396 1071.84342603 235.1875 1069.3125 C234.58177155 1068.95731293 233.97604309 1068.60212585 233.35195923 1068.23617554 C225.24069082 1063.48038784 217.12355793 1058.73477266 209 1054 C196.55543043 1046.74674861 184.12998798 1039.46102122 171.70556641 1032.17333984 C168.04753137 1030.02775582 164.3890727 1027.88289501 160.73046875 1025.73828125 C160.13335083 1025.3882605 159.53623291 1025.03823975 158.92102051 1024.6776123 C157.11402103 1023.61839564 155.30701236 1022.55919467 153.5 1021.5 C146.81099073 1017.57918401 140.1220066 1013.65832629 133.43417358 1009.73550415 C121.62982662 1002.8115604 109.82347775 995.89125131 98 989 C89.26364688 983.90806291 80.53540101 978.80243501 71.8125 973.6875 C71.20717438 973.33255463 70.60184875 972.97760925 69.97817993 972.61190796 C65.0303904 969.71052227 60.08299871 966.80845842 55.13562012 963.90637207 C50.81976349 961.37476856 46.50375396 958.84342603 42.1875 956.3125 C41.58177155 955.95731293 40.97604309 955.60212585 40.35195923 955.23617554 C32.24069082 950.48038784 24.12355793 945.73477266 16 941 C3.55543043 933.74674861 -8.87001202 926.46102122 -21.29443359 919.17333984 C-24.95246863 917.02775582 -28.6109273 914.88289501 -32.26953125 912.73828125 C-33.16520813 912.21325012 -33.16520813 912.21325012 -34.07897949 911.6776123 C-35.88597897 910.61839564 -37.69298764 909.55919467 -39.5 908.5 C-46.18900927 904.57918401 -52.8779934 900.65832629 -59.56582642 896.73550415 C-71.37017338 889.8115604 -83.17652225 882.89125131 -95 876 C-103.73635312 870.90806291 -112.46459899 865.80243501 -121.1875 860.6875 C-121.79282562 860.33255463 -122.39815125 859.97760925 -123.02182007 859.61190796 C-127.9696096 856.71052227 -132.91700129 853.80845842 -137.86437988 850.90637207 C-142.18023651 848.37476856 -146.49624604 845.84342603 -150.8125 843.3125 C-151.41822845 842.95731293 -152.02395691 842.60212585 -152.64804077 842.23617554 C-160.75930918 837.48038784 -168.87644207 832.73477266 -177 828 C-185.73635312 822.90806291 -194.46459899 817.80243501 -203.1875 812.6875 C-203.79282562 812.33255463 -204.39815125 811.97760925 -205.02182007 811.61190796 C-209.9696096 808.71052227 -214.91700129 805.80845842 -219.86437988 802.90637207 C-224.18023651 800.37476856 -228.49624604 797.84342603 -232.8125 795.3125 C-233.41822845 794.95731293 -234.02395691 794.60212585 -234.64804077 794.23617554 C-243.71321693 788.92109396 -252.78676466 783.62050622 -261.86621094 778.32983398 C-267.4789233 775.05794841 -273.0872902 771.77876797 -278.69140625 768.4921875 C-279.34611908 768.10822815 -280.00083191 767.7242688 -280.67538452 767.32867432 C-283.88231429 765.44769095 -287.08884128 763.56602411 -290.29492188 761.68359375 C-295.8462753 758.42539853 -301.40004161 755.17413207 -307 752 C-307 751.34 -307 750.68 -307 750 C-251.13462689 749.65614531 -195.26935974 749.39209138 -139.4031351 749.23402006 C-132.79723808 749.21526102 -126.19134314 749.19584603 -119.58544922 749.17602539 C-117.61290173 749.17012341 -117.61290173 749.17012341 -115.6005048 749.16410219 C-94.34934527 749.09895566 -73.09878675 748.98075629 -51.84798236 748.84270806 C-30.01831552 748.70208952 -8.18896817 748.61904576 13.64113295 748.58867258 C27.09562983 748.56816137 40.54839374 748.50354957 54.00235672 748.381253 C63.24709795 748.30153459 72.4909525 748.27809378 81.73601191 748.29747934 C87.05876906 748.30702263 92.37851397 748.29313281 97.70072556 748.21191788 C121.35429389 747.86888346 138.81302044 748.50523447 158.28651929 763.05195987 C163.00296847 766.43795492 168.07641515 769.2078695 173.125 772.0625 C175.10844183 773.21718653 177.09042188 774.37439117 179.0703125 775.53515625 C185.04494017 779.02675781 191.02226724 782.51371786 197 786 C199.0000118 787.16664643 201.00001181 788.33331309 203 789.5 C203.99 790.0775 204.98 790.655 206 791.25 C354.5 877.875 354.5 877.875 647 1048.5 C647.99104736 1049.07806396 648.98209473 1049.65612793 650.00317383 1050.25170898 C651.99275989 1051.4123954 653.98218189 1052.57336311 655.97143555 1053.73461914 C661.12942341 1056.7451722 666.29061568 1059.75002326 671.45703125 1062.74609375 C673.05321289 1063.67325195 673.05321289 1063.67325195 674.68164062 1064.61914062 C676.6935906 1065.78765305 678.70653007 1066.95446433 680.72070312 1068.11914062 C687.25471594 1071.91734905 693.65207016 1075.89867529 700 1080 C697.7164789 1087.30879495 694.82724883 1094.207944 691.6875 1101.1875 C691.16333496 1102.35804932 690.63916992 1103.52859863 690.09912109 1104.73461914 C676.18677441 1135.72565095 661.56787935 1166.3262671 645 1196 C644.50209961 1196.89928223 644.00419922 1197.79856445 643.49121094 1198.72509766 C625.93654509 1230.4232004 606.75787468 1261.30139321 586 1291 C585.50048828 1291.71559082 585.00097656 1292.43118164 584.48632812 1293.16845703 C581.01650389 1298.13066666 577.51469647 1303.06950534 574 1308 C573.48469727 1308.72541992 572.96939453 1309.45083984 572.43847656 1310.19824219 C564.76492215 1320.98844023 556.82087851 1331.52939462 548.62841797 1341.93066406 C547.12347821 1343.84308827 545.62481261 1345.76019408 544.12890625 1347.6796875 C534.15266946 1360.46454143 523.92666043 1373.04419077 513.39013672 1385.37158203 C511.93465989 1387.07653996 510.48473947 1388.7861233 509.03515625 1390.49609375 C503.3019919 1397.24208017 497.4494858 1403.84927088 491.4375 1410.34765625 C489.48256122 1412.47490534 487.57117955 1414.62272252 485.6875 1416.8125 C482.21588787 1420.81368009 478.61073299 1424.68727905 475 1428.5625 C474.41822998 1429.18809814 473.83645996 1429.81369629 473.23706055 1430.45825195 C470.3769666 1433.51772842 467.48438135 1436.52626066 464.5 1439.46484375 C462.16561941 1441.77895336 459.97297054 1444.15204206 457.83984375 1446.65234375 C453.23201548 1451.9876562 448.22153092 1456.92794425 443.23022461 1461.90014648 C441.56573723 1463.5592732 439.90666553 1465.22368051 438.24804688 1466.88867188 C433.19966272 1471.93988579 428.11756774 1476.89449593 422.68334961 1481.53491211 C420.15480504 1483.73560768 417.84206914 1486.10149546 415.5 1488.5 C411.86775706 1492.18149581 408.15966834 1495.70007744 404.2265625 1499.05859375 C401.26046515 1501.64482249 398.38378885 1504.32269355 395.5 1507 C390.73388022 1511.41522324 385.93152016 1515.76922871 381 1520 C380.5148291 1520.41685059 380.0296582 1520.83370117 379.52978516 1521.26318359 C376.59818475 1523.78161129 373.66364344 1526.29656014 370.7265625 1528.80859375 C368.25825626 1530.92030934 365.79496691 1533.0376464 363.3359375 1535.16015625 C357.54696086 1540.15216808 351.73602429 1545.08762298 345.734375 1549.82421875 C343.60469296 1551.51883718 341.49344798 1553.22955672 339.390625 1554.95703125 C332.09371454 1560.94627756 324.72365013 1566.78688347 317.13989258 1572.40917969 C312.04732238 1576.19043006 307.04904903 1580.08039036 302.0625 1584 C294.96164545 1589.56241207 287.70179905 1594.83452216 280.30078125 1599.98828125 C275.71842003 1603.18128151 271.20408383 1606.46495349 266.6875 1609.75 C260.48327409 1614.24729504 254.22064511 1618.61319325 247.80761719 1622.80957031 C244.70947229 1624.84989372 241.63083278 1626.91941244 238.5480957 1628.98291016 C191.15204233 1660.68179673 141.98219803 1689.33298835 91.24169922 1715.33740234 C89.17638705 1716.39665644 87.11272477 1717.45913812 85.05126953 1718.52587891 C67.77215599 1727.45923728 50.07617044 1735.38382764 32.24804688 1743.14501953 C29.55148579 1744.31961527 26.85978512 1745.50399375 24.17382812 1746.70263672 C20.87330909 1748.17363919 17.56377218 1749.62166092 14.25 1751.0625 C13.3115625 1751.48611816 12.373125 1751.90973633 11.40625 1752.34619141 C10.53484375 1752.7179248 9.6634375 1753.0896582 8.765625 1753.47265625 C8.03118164 1753.79500244 7.29673828 1754.11734863 6.54003906 1754.44946289 C-0.2444375 1755.91995449 -6.01425239 1753.44953265 -11.984375 1750.51953125 C-12.74140717 1750.15905701 -13.49843933 1749.79858276 -14.27841187 1749.42718506 C-16.77478988 1748.23406252 -19.2624474 1747.02390278 -21.75 1745.8125 C-23.51259275 1744.96356024 -25.27545641 1744.11518273 -27.03857422 1743.26733398 C-54.12670026 1730.20180511 -81.28184051 1717.09572997 -107.51855469 1702.37744141 C-111.2621436 1700.29938861 -115.04064048 1698.28746719 -118.81518555 1696.26635742 C-132.06552423 1689.15855985 -145.07156139 1681.6756177 -158 1674 C-159.04897461 1673.37802734 -160.09794922 1672.75605469 -161.17871094 1672.11523438 C-174.10316851 1664.43974517 -186.9270863 1656.62857705 -199.59277344 1648.53320312 C-202.15219017 1646.90306752 -204.71988253 1645.28657528 -207.2890625 1643.671875 C-220.40270586 1635.41211156 -233.26272512 1626.82813681 -246 1618 C-247.29599121 1617.1023291 -247.29599121 1617.1023291 -248.61816406 1616.18652344 C-266.95944955 1603.46091005 -284.97971516 1590.37676827 -302.68359375 1576.77734375 C-304.67066537 1575.25269352 -306.66184082 1573.73377738 -308.65625 1572.21875 C-315.19879062 1567.2308725 -321.60877738 1562.10333394 -327.97631836 1556.89477539 C-332.39596391 1553.28402342 -336.86655666 1549.7489333 -341.375 1546.25 C-346.30536901 1542.41335897 -350.9905977 1538.39686455 -355.58984375 1534.1640625 C-358.07661419 1531.93120866 -360.64120996 1529.83855098 -363.25 1527.75 C-369.01378293 1523.08992018 -374.38763622 1518.06425479 -379.7890625 1512.99609375 C-382.17359485 1510.76085267 -384.5876206 1508.5729972 -387.0625 1506.4375 C-392.2155644 1501.98020801 -397.19367627 1497.3329268 -402.1796875 1492.69091797 C-403.96871858 1491.02905782 -405.76535687 1489.37573491 -407.5625 1487.72265625 C-417.47840944 1478.54580492 -427.06410853 1469.04349574 -436.625 1459.5 C-437.28370087 1458.84388733 -437.94240173 1458.18777466 -438.62106323 1457.51177979 C-451.30491034 1444.86725784 -451.30491034 1444.86725784 -456.69677734 1438.52148438 C-458.36502803 1436.57383764 -460.15584219 1434.78056617 -462 1433 C-465.17089998 1429.87154036 -468.1256996 1426.63144648 -471.02734375 1423.25390625 C-472.9648538 1421.04015714 -474.9514439 1418.87757752 -476.95239258 1416.72119141 C-481.78184895 1411.51462801 -486.3644026 1406.18264588 -490.8203125 1400.6484375 C-492.97757399 1398.02724881 -495.21311 1395.50845719 -497.5 1393 C-502.20463572 1387.8249007 -506.60518139 1382.43858803 -511 1377 C-511.99917657 1375.78057483 -512.99922565 1374.56186423 -514 1373.34375 C-521.88711 1363.72544038 -529.50499874 1353.92606326 -537 1344 C-537.5038623 1343.33500488 -538.00772461 1342.67000977 -538.52685547 1341.98486328 C-542.0435422 1337.34210439 -545.52882573 1332.67685464 -549 1328 C-549.47276367 1327.36707031 -549.94552734 1326.73414063 -550.43261719 1326.08203125 C-561.84695261 1310.75931549 -572.28233064 1294.755587 -582.80218506 1278.81365967 C-583.8617809 1277.20928309 -584.92409554 1275.60670284 -585.98681641 1274.00439453 C-601.0447571 1251.29566932 -614.91123772 1227.89242733 -628 1204 C-628.54124512 1203.02047363 -629.08249023 1202.04094727 -629.64013672 1201.03173828 C-647.41547101 1168.83680683 -663.57469096 1135.82572299 -678 1102 C-678.29888123 1101.30040161 -678.59776245 1100.60080322 -678.90570068 1099.88000488 C-715.53617327 1014.01073584 -741.60960521 924.21768165 -777.87432861 653.48376465 C-777.98597996 651.27709154 -778.10157063 649.07066858 -778.21826172 646.86425781 C-783.23773781 547.67301933 -776.7180503 446.06155533 -746 289 C-745.36077103 288.97129822 -744.72154205 288.94259644 -744.0629425 288.9130249 C-648.61654347 284.59995617 -554.57890666 273.42073856 -208.64111328 149.4609375 C-205.87901326 147.93307593 -203.09779285 146.44652131 -200.30859375 144.96875 C-185.634913 137.1795137 -171.41769802 128.75687334 -157.29003906 120.03076172 C-154.22630512 118.13968581 -151.15713131 116.25783403 -148.0859375 114.37890625 C-137.9057417 108.13570297 -127.86372679 101.73196722 -118 95 C-117.35224609 94.55946289 -116.70449219 94.11892578 -116.03710938 93.66503906 C-106.59779811 87.23992332 -97.24576962 80.70057282 -88 74 C-87.27409668 73.47535156 -86.54819336 72.95070313 -85.80029297 72.41015625 C-75.1616495 64.7053139 -64.8062977 56.74763095 -54.68066406 48.38085938 C-52.4131129 46.51780455 -50.11418653 44.69562664 -47.8125 42.875 C-38.76116564 35.64608196 -30.00796942 28.10012846 -21.48046875 20.26171875 C-19.35129911 18.3203184 -17.19081789 16.43336071 -15 14.5625 C-9.72843758 9.99381257 -4.88896437 4.96984797 0 0 Z " fill="#22806F" transform="translate(2325,0)"/>
<path d="M0 0 C70.29 -0.061875 140.58 -0.12375 213 -0.1875 C246.26748047 -0.22846802 246.26748047 -0.22846802 280.20703125 -0.27026367 C307.33007812 -0.28381348 307.33007812 -0.28381348 320.03540039 -0.28633118 C328.89187017 -0.28912135 337.74828274 -0.30009435 346.60473633 -0.31672668 C356.83434946 -0.33590918 367.063908 -0.34448772 377.29353923 -0.34033485 C382.519261 -0.33853827 387.74486099 -0.34125842 392.97056007 -0.35764539 C413.18405401 -0.41799646 433.01622351 -0.46507913 453 3 C454.2660759 3.20895307 455.53215179 3.41790613 456.83659363 3.63319111 C459.59709071 4.1082598 462.3261818 4.65242216 465.0625 5.25 C466.03743408 5.45979492 467.01236816 5.66958984 468.0168457 5.88574219 C500.3199605 13.0820963 531.38274375 26.18272086 558 46 C558.59329102 46.43779785 559.18658203 46.8755957 559.79785156 47.32666016 C615.95690898 89.08238907 646.26347541 153.56464638 656.38623047 221.59570312 C657.05387402 226.38527676 657.6091022 231.17960223 658 236 C658.08540039 237.04542969 658.17080078 238.09085938 658.25878906 239.16796875 C659.01177223 249.28331256 659.24261774 259.3596472 659.25 269.5 C659.25101212 270.76691177 659.25101212 270.76691177 659.25204468 272.05941772 C659.17594979 332.68286103 644.46540948 400.49251713 603 447 C602.23816406 447.85851563 601.47632813 448.71703125 600.69140625 449.6015625 C599.17335313 451.29625249 597.64755619 452.98404469 596.11328125 454.6640625 C594.21557683 456.7617099 592.3865007 458.90103782 590.5625 461.0625 C576.35942852 477.28065256 557.08866677 489.68020343 538.375 500.0625 C537.56039307 500.52060059 536.74578613 500.97870117 535.90649414 501.45068359 C529.47269113 504.94714297 522.84003772 507.83614976 516.10400391 510.69702148 C514.64448051 511.31957447 514.64448051 511.31957447 513.1554718 511.95470428 C510.77102841 512.971493 508.3858606 513.98654228 506 515 C506.52370249 516.04626582 506.52370249 516.04626582 507.05798483 517.11366832 C527.72992214 558.41283025 548.397709 599.71406688 569.0600746 641.01801854 C571.53855449 645.97247678 574.01706922 650.9269176 576.49560547 655.88134766 C576.98905691 656.86772591 577.48250834 657.85410416 577.99091285 658.87037267 C585.99101157 674.86185687 593.99393385 690.85192642 601.99789232 706.84147905 C610.2047355 723.23649188 618.40856154 739.63301177 626.6095624 756.0309478 C631.67403827 766.1571492 636.74089103 776.28215406 641.81074774 786.40566255 C645.28256226 793.3387561 648.75145692 800.27330537 652.21801555 807.20902835 C654.22099584 811.21627559 656.2252987 815.22284736 658.23305702 819.22770309 C660.0683971 822.88870834 661.90009241 826.55151214 663.72881299 830.2158282 C664.39362406 831.54630103 665.05981023 832.87608774 665.72745389 834.20514141 C666.62967822 836.00164936 667.52656992 837.80083253 668.42313385 839.60017204 C668.92436469 840.60187427 669.42559552 841.60357651 669.94201517 842.63563335 C671 845 671 845 671 847 C602.69 847 534.38 847 464 847 C459.71 837.76 455.42 828.52 451 819 C448.5126622 813.8366298 446.02612087 808.67689789 443.4987793 803.53369141 C437.49267889 791.30420805 431.64637659 779.01522789 425.953125 766.63671875 C421.24234212 756.4339093 416.32744498 746.33593562 411.39547729 736.2387085 C406.67995657 726.57967591 402.05177546 716.89174431 397.5625 707.125 C392.52737544 696.1729651 387.29606035 685.32761121 382 674.5 C376.16487779 662.57029558 370.44901118 650.60233349 364.90234375 638.53515625 C360.5617674 629.12695701 356.04718461 619.80967413 351.5 610.5 C345.76976871 598.76731288 340.15722409 586.99407248 334.70043945 575.13134766 C331.95483115 569.17360828 329.16876826 563.23934364 326.30859375 557.3359375 C325.8517067 556.39243439 325.8517067 556.39243439 325.3855896 555.42987061 C323.91665539 552.39998181 322.44165088 549.37329545 320.95996094 546.34960938 C320.44079102 545.28291016 319.92162109 544.21621094 319.38671875 543.1171875 C318.92483154 542.17472168 318.46294434 541.23225586 317.98706055 540.26123047 C317 538 317 538 317 536 C273.44 536 229.88 536 185 536 C185 638.63 185 741.26 185 847 C123.95 847 62.9 847 0 847 C0 567.49 0 287.98 0 0 Z M185 160 C185 232.93 185 305.86 185 381 C216.659375 381.020625 248.31875 381.04125 280.9375 381.0625 C290.910896 381.071604 300.88429199 381.08070801 311.15991211 381.09008789 C320.14893324 381.09343362 320.14893324 381.09343362 329.13795471 381.09544373 C333.12221338 381.09637028 337.10645854 381.1000974 341.0907135 381.10557556 C346.19153179 381.11249475 351.29233077 381.11448013 356.39315331 381.11307228 C358.25349286 381.11336616 360.11383317 381.11531317 361.97416866 381.11921513 C383.90475668 381.33517006 383.90475668 381.33517006 405.5625 378.375 C406.34496094 378.20387695 407.12742187 378.03275391 407.93359375 377.85644531 C420.81578363 374.82871379 431.71198336 369.32669631 442 361 C443.051875 360.236875 444.10375 359.47375 445.1875 358.6875 C458.60773818 345.86371685 466.42264786 326.71676293 467.14717102 308.24859619 C467.1621105 306.82755839 467.17174046 305.40645815 467.17700195 303.98535156 C467.18357315 303.20384232 467.19014435 302.42233307 467.19691467 301.61714172 C467.21654937 299.0416349 467.22829488 296.46618644 467.23828125 293.890625 C467.24235678 293.00289146 467.2464323 292.11515793 467.25063133 291.20052338 C467.27146095 286.49192034 467.28577012 281.78334609 467.29516602 277.07470703 C467.30616009 272.26061276 467.34048697 267.44698969 467.38033772 262.63306046 C467.40676297 258.89045482 467.41488103 255.14795647 467.41844749 251.40526581 C467.42325531 249.63381558 467.43469837 247.86236818 467.45348549 246.09101105 C467.66099668 225.21011767 464.05254762 205.86200157 451 189 C450.57460937 188.39800781 450.14921875 187.79601563 449.7109375 187.17578125 C439.45057033 173.67364163 421.6311715 166.15915077 405.5625 162.625 C404.8610083 162.46918457 404.1595166 162.31336914 403.43676758 162.15283203 C389.02058687 159.33763781 373.88465428 159.85580322 359.26147461 159.88647461 C357.31701694 159.88678178 355.37255916 159.88664603 353.42810154 159.88610935 C348.27429557 159.88588586 343.12051337 159.89163356 337.96671295 159.89871979 C333.11033564 159.904463 328.25396377 159.90468551 323.39758301 159.90539551 C309.24421892 159.91061914 295.09085915 159.92458041 280.9375 159.9375 C249.278125 159.958125 217.61875 159.97875 185 160 Z " fill="#163656" transform="translate(991,2160)"/>
<path d="M0 0 C1.00300077 -0.00424107 1.00300077 -0.00424107 2.02626419 -0.00856781 C5.58164084 -0.02345749 9.13697816 -0.03274509 12.69238281 -0.03710938 C15.55807573 -0.04144489 18.4234592 -0.05515721 21.2890625 -0.078125 C46.3523984 -0.27470089 71.03945391 1.13897304 95.7890625 5.453125 C97.01383301 5.66437012 98.23860352 5.87561523 99.50048828 6.09326172 C132.60368578 12.01198257 164.55785015 22.20740772 194.6640625 37.203125 C195.44233398 37.58678223 196.22060547 37.97043945 197.02246094 38.36572266 C227.12538916 53.32480602 253.28894263 73.73250619 277.0390625 97.328125 C277.80517349 98.08606354 277.80517349 98.08606354 278.58676147 98.85931396 C285.40674842 105.62505523 291.70892046 112.65349982 297.6640625 120.203125 C298.82538979 121.63942889 299.98683905 123.07563415 301.1484375 124.51171875 C314.79638989 141.66298764 326.05541156 160.05449084 336.6640625 179.203125 C337.09187012 179.96689453 337.51967773 180.73066406 337.96044922 181.51757812 C339.12205216 183.59473246 340.27093681 185.67825722 341.4140625 187.765625 C342.04828125 188.92191406 342.6825 190.07820313 343.3359375 191.26953125 C344.6640625 194.203125 344.6640625 194.203125 344.6640625 198.203125 C341.82015475 199.82821514 338.97624457 201.45330105 336.13232422 203.07836914 C333.61827415 204.5149632 331.10428388 205.95166182 328.59033203 207.38842773 C322.22263689 211.0275582 315.85438612 214.66570608 309.484375 218.30078125 C298.19649967 224.74335583 286.91795655 231.2012928 275.6640625 237.703125 C266.71847277 242.87135593 257.76051724 248.01744395 248.7890625 253.140625 C248.21333496 253.46940643 247.63760742 253.79818787 247.04443359 254.13693237 C242.91808418 256.49310273 238.7911113 258.84817997 234.6640625 261.203125 C230.26622767 263.71268883 225.86867085 266.22273822 221.47161865 268.7336731 C219.73150333 269.72712235 217.99100351 270.71989803 216.25048828 271.71264648 C215.17009277 272.32954346 214.08969727 272.94644043 212.9765625 273.58203125 C211.935 274.17516113 210.8934375 274.76829102 209.8203125 275.37939453 C207.62028732 276.65060339 205.43365082 277.94514649 203.2578125 279.25732422 C202.175 279.90846191 201.0921875 280.55959961 199.9765625 281.23046875 C199.00332031 281.824646 198.03007813 282.41882324 197.02734375 283.03100586 C196.24746094 283.41780518 195.46757813 283.80460449 194.6640625 284.203125 C191.49133192 282.61675971 190.89137516 279.34697445 189.6015625 276.203125 C172.04105701 235.04322812 140.2855183 196.31453681 98.1015625 179.078125 C76.89021334 170.69781507 54.16310571 166.15874392 31.35546875 165.96484375 C30.3989592 165.95509521 29.44244965 165.94534668 28.45695496 165.93530273 C7.88863401 165.76872643 -12.15110453 165.74266984 -32.3359375 170.203125 C-33.20412109 170.39036133 -34.07230469 170.57759766 -34.96679688 170.77050781 C-40.50519663 172.00291883 -45.92828843 173.48830307 -51.3359375 175.203125 C-52.09745117 175.44369629 -52.85896484 175.68426758 -53.64355469 175.93212891 C-76.17622525 183.24091129 -96.70996419 194.68178815 -113.93359375 210.9765625 C-116.3359375 213.203125 -116.3359375 213.203125 -118.8828125 215.1875 C-123.39278187 218.89314362 -126.78405026 223.60188004 -130.3359375 228.203125 C-130.75069336 228.73760254 -131.16544922 229.27208008 -131.59277344 229.82275391 C-137.99084342 238.157017 -143.06312863 246.76160194 -147.45849609 256.30078125 C-148.2595177 258.03744246 -149.08737479 259.7616616 -149.91796875 261.484375 C-167.54508343 299.80823382 -168.82143797 342.61068291 -168.73891401 383.98134685 C-168.73118173 389.09039795 -168.73839994 394.19943499 -168.74307251 399.30848694 C-168.74849188 407.8804113 -168.74144047 416.4522575 -168.72705078 425.02416992 C-168.71073701 434.85412428 -168.7160192 444.68389174 -168.73253 454.51384157 C-168.74626128 463.03876054 -168.74800822 471.56362414 -168.74021399 480.08855063 C-168.7356 485.14276876 -168.73473488 490.19689987 -168.74482346 495.25111198 C-168.83847897 549.68845488 -164.38060373 610.51229599 -126.3359375 653.203125 C-125.61792969 654.04101562 -124.89992188 654.87890625 -124.16015625 655.7421875 C-94.32371618 689.97725017 -49.90041605 707.38697759 -5.3359375 711.203125 C-1.94396769 711.36274963 1.44446949 711.41258466 4.83984375 711.44140625 C6.27235725 711.45609703 6.27235725 711.45609703 7.73381042 711.47108459 C28.67116566 711.64152084 49.09573126 711.61350151 69.6640625 707.203125 C70.67210937 706.98881836 71.68015625 706.77451172 72.71875 706.55371094 C111.08710351 698.08357634 146.0105918 679.21729454 167.9140625 645.8359375 C171.7282999 639.58001026 174.59810887 633.30185805 176.9765625 626.390625 C177.20706299 625.72901367 177.43756348 625.06740234 177.67504883 624.38574219 C185.96665941 598.47864604 183.1859588 570.97693246 183.6640625 544.203125 C131.5240625 544.203125 79.3840625 544.203125 25.6640625 544.203125 C25.6640625 493.383125 25.6640625 442.563125 25.6640625 390.203125 C136.2140625 390.203125 246.7640625 390.203125 360.6640625 390.203125 C360.6640625 545.963125 360.6640625 701.723125 360.6640625 862.203125 C309.1840625 862.203125 257.7040625 862.203125 204.6640625 862.203125 C204.6640625 817.983125 204.6640625 773.763125 204.6640625 728.203125 C203.0140625 728.533125 201.3640625 728.863125 199.6640625 729.203125 C199.35275391 730.91242188 199.35275391 730.91242188 199.03515625 732.65625 C192.97186008 764.44354721 179.10007211 791.81964877 156.6640625 815.203125 C155.7978125 816.13253906 154.9315625 817.06195312 154.0390625 818.01953125 C142.57030339 830.09399972 129.12109042 839.98970403 114.6640625 848.203125 C113.54257812 848.85667969 112.42109375 849.51023437 111.265625 850.18359375 C90.61067187 861.92271934 67.31473124 868.54790985 44.1015625 872.953125 C43.06306152 873.15188232 42.02456055 873.35063965 40.95458984 873.55541992 C22.75836992 876.8254693 4.68920395 877.55183076 -13.76953125 877.51879883 C-17.43520125 877.51564713 -21.10005439 877.53916825 -24.765625 877.56445312 C-45.16668271 877.61935652 -65.37625596 875.98825199 -85.3984375 871.953125 C-86.45240723 871.74478027 -87.50637695 871.53643555 -88.59228516 871.32177734 C-130.44009453 862.74829211 -171.58169228 846.23705513 -206.3359375 821.203125 C-207.36920166 820.46280029 -207.36920166 820.46280029 -208.42333984 819.70751953 C-227.39353462 806.02636287 -246.01422064 790.37630522 -261.27734375 772.59765625 C-262.83175082 770.78958882 -264.40548505 768.99811192 -265.98828125 767.21484375 C-282.64681307 748.33051983 -296.30497551 727.12958234 -308.32421875 705.04589844 C-309.26659019 703.32943618 -310.23768236 701.62882877 -311.2109375 699.9296875 C-328.799966 668.48929905 -340.68920353 633.0305048 -349.3359375 598.203125 C-349.63983398 596.98173828 -349.94373047 595.76035156 -350.25683594 594.50195312 C-358.67697341 559.97669361 -362.9876087 524.62453072 -365.3359375 489.203125 C-365.40651367 488.17896484 -365.47708984 487.15480469 -365.54980469 486.09960938 C-371.3899472 396.92156026 -361.76810607 301.93837341 -312.31738281 190.09228516 C-311.28677179 188.10848712 -310.27608406 186.11522295 -309.265625 184.12109375 C-296.60588194 159.39543651 -280.50106627 135.99807641 -261.58203125 115.6328125 C-259.71339655 113.61143722 -257.9223995 111.55660157 -256.1484375 109.453125 C-247.89981991 99.99549017 -238.84834684 91.057514 -228.98828125 83.296875 C-226.16274269 81.06640568 -223.44347058 78.73385554 -220.7109375 76.390625 C-160.6028776 26.35221431 -77.62752238 0.2606422 0 0 Z " fill="#163656" transform="translate(427.3359375,2144.796875)"/>
<path d="M0 0 C59.73 0 119.46 0 181 0 C181 174.9 181 349.8 181 530 C187.74280857 528.49533854 187.74280857 528.49533854 191.1640625 524.06640625 C191.71352539 523.21224121 192.26298828 522.35807617 192.82910156 521.47802734 C193.42174805 520.51590332 194.01439453 519.5537793 194.625 518.5625 C195.64972747 516.96383504 196.67466511 515.36529981 197.70361328 513.76934814 C198.47570886 512.57087702 199.24547049 511.37089984 200.01318359 510.1696167 C205.30740327 501.90428385 210.84678223 493.80255518 216.35223389 485.67721558 C219.5165672 481.00480413 222.67277455 476.32691827 225.828125 471.6484375 C226.44356171 470.73599777 227.05899841 469.82355804 227.69308472 468.88346863 C232.74218388 461.39274535 237.76064146 453.88198966 242.7628479 446.3598938 C245.48401801 442.26897611 248.21063022 438.18168387 250.93701172 434.09423828 C252.26566035 432.10142257 253.59291887 430.10767899 254.91845703 428.11279297 C261.0083822 418.96389591 267.20098352 410.16654437 274.45703125 401.90234375 C276.85081361 399.17026957 279.15410841 396.3870185 281.4375 393.5625 C285.39508188 388.69870975 289.46542446 383.94118769 293.55834961 379.19165039 C296.58945289 375.66701081 299.56985316 372.10960118 302.5 368.5 C306.4337857 363.65403211 310.48447759 358.91901472 314.55859375 354.19140625 C317.58958284 350.66682097 320.56992581 347.10951168 323.5 343.5 C327.4337857 338.65403211 331.48447759 333.91901472 335.55859375 329.19140625 C338.58958284 325.66682097 341.56992581 322.10951168 344.5 318.5 C348.88712902 313.09923828 353.41223412 307.825323 357.94921875 302.55078125 C364.19427321 295.28968997 370.3963115 287.99446571 376.4375 280.5625 C377.13101688 279.73907671 377.82453377 278.91565342 378.53906631 278.06727791 C380.29393242 275.88003408 381.83657034 273.77423984 383.37398911 271.45016289 C387.07279851 266.15117836 390.69565402 261.13578879 397.30023956 259.73035049 C402.46858422 259.10391639 407.62035632 259.26474971 412.81347656 259.41064453 C414.7955141 259.41459976 416.7775721 259.41236477 418.75959778 259.40444946 C424.10971417 259.40045172 429.45538667 259.48242168 434.80447483 259.58048487 C440.40561094 259.66833888 446.00686274 259.67625295 451.60858154 259.69284058 C462.20207463 259.73625809 472.79353147 259.85100656 483.38613009 259.99173343 C495.4511864 260.14852355 507.51634287 260.22526824 519.58216524 260.29546952 C544.38923665 260.44158602 569.19450396 260.68764113 594 261 C593.06221798 262.26728865 592.12205098 263.53281261 591.1809082 264.79760742 C590.65761429 265.5025383 590.13432037 266.20746918 589.59516907 266.9337616 C587.30310577 269.90269405 584.77481644 272.60195765 582.1875 275.3125 C577.65950511 280.13158528 573.41809643 285.09481295 569.27734375 290.25390625 C566.33922549 293.79678299 563.21768822 297.15441772 560.08349609 300.52197266 C557.11269934 303.73316873 554.30031679 307.02636841 551.5625 310.4375 C547.71954521 315.21541338 543.63168671 319.68994984 539.44384766 324.16162109 C535.52093146 328.37429105 531.88088976 332.76413555 528.27734375 337.25390625 C525.78173531 340.26319052 523.16234857 343.13938654 520.5 346 C517.02580757 349.73327255 513.6993129 353.52371111 510.5 357.5 C506.8643595 362.01858176 503.03163598 366.27983329 499.08374023 370.52172852 C496.11284372 373.7329905 493.30038923 377.02627815 490.5625 380.4375 C486.71954521 385.21541338 482.63168671 389.68994984 478.44384766 394.16162109 C474.52093146 398.37429105 470.88088976 402.76413555 467.27734375 407.25390625 C464.78173531 410.26319052 462.16234857 413.13938654 459.5 416 C456.02580757 419.73327255 452.6993129 423.52371111 449.5 427.5 C445.86500611 432.01777813 442.0328971 436.27818516 438.0859375 440.51953125 C435.09558642 443.75211747 432.26213671 447.06705866 429.5 450.5 C425.8643595 455.01858176 422.03163598 459.27983329 418.08374023 463.52172852 C415.11284372 466.7329905 412.30038923 470.02627815 409.5625 473.4375 C406.19649112 477.62243054 402.6677846 481.58266311 399 485.5 C389.5017966 494.83163748 389.5017966 494.83163748 383 506 C384.18775589 508.70079126 384.18775589 508.70079126 386.0234375 511.65234375 C386.35579407 512.21540726 386.68815063 512.77847076 387.03057861 513.3585968 C388.13548728 515.22431718 389.25501541 517.08079686 390.375 518.9375 C391.15359887 520.24466073 391.93142004 521.55228498 392.70849609 522.86035156 C395.12345549 526.91631862 397.5593327 530.95946409 400 535 C400.37455322 535.62070374 400.74910645 536.24140747 401.13500977 536.88092041 C405.03475853 543.34195949 408.95331718 549.79139266 412.8828125 556.234375 C416.78727608 562.6371206 420.64907422 569.06494065 424.5 575.5 C429.36401417 583.62621156 434.26235651 591.73065593 439.18847656 599.81933594 C445.69583435 610.50529146 452.12648207 621.23367779 458.5 632 C464.48915773 642.11567254 470.51564875 652.20640639 476.625 662.25 C476.97274475 662.8217395 477.3204895 663.393479 477.67877197 663.98254395 C480.11685807 667.98977938 482.55804334 671.99512241 485 676 C487.79385607 680.58200252 490.58623693 685.16489554 493.375 689.75 C493.72258362 690.32141724 494.07016724 690.89283447 494.42828369 691.48156738 C500.59331403 701.62354266 506.65852309 711.82317449 512.70544434 722.03588867 C518.29406711 731.47210906 523.92555415 740.88027881 529.625 750.25 C529.97274475 750.8217395 530.3204895 751.393479 530.67877197 751.98254395 C533.11685807 755.98977938 535.55804334 759.99512241 538 764 C540.79385607 768.58200252 543.58623693 773.16489554 546.375 777.75 C546.72258362 778.32141724 547.07016724 778.89283447 547.42828369 779.48156738 C553.59331403 789.62354266 559.65852309 799.82317449 565.70544434 810.03588867 C571.29406596 819.47210711 576.9254196 828.88036191 582.625 838.25 C582.96975372 838.81675446 583.31450745 839.38350891 583.66970825 839.96743774 C585.754563 843.3936079 587.84159361 846.81844924 589.92913818 850.24298096 C607.47293454 879.02800607 607.47293454 879.02800607 614.0625 890.1875 C614.4742749 890.88254639 614.8860498 891.57759277 615.31030273 892.29370117 C618 896.8772319 618 896.8772319 618 898 C547.05 898 476.1 898 403 898 C391.70029637 877.66053347 391.70029637 877.66053347 387.125 868.75 C383.19553744 861.15605403 379.18274474 853.61709359 375.0625 846.125 C370.18882632 837.25826405 365.49918122 828.30598734 360.85571289 819.31689453 C357.3228528 812.49565565 353.70232906 805.73061932 350 799 C345.1457943 790.17533581 340.47770065 781.26443237 335.85546875 772.31640625 C332.32267761 765.49533696 328.70224126 758.73045971 325 752 C320.1457943 743.17533581 315.47770065 734.26443237 310.85546875 725.31640625 C307.32267761 718.49533696 303.70224126 711.73045971 300 705 C295.72170515 697.22230831 291.57425531 689.38645588 287.5 681.5 C278.69380262 664.46723704 269.46128426 647.67670812 260 631 C251.2752266 640.38772815 251.2752266 640.38772815 242.7734375 649.9765625 C240.54861908 652.51501171 238.27496681 655.00641776 236 657.5 C232.54671847 661.28662998 229.13900949 665.1047632 225.77734375 668.97265625 C222.94688384 672.20124678 220.06038793 675.37913175 217.18359375 678.56640625 C215.29151315 680.67511146 213.42094242 682.79919801 211.5625 684.9375 C207.91062947 689.13164365 204.15733816 693.23094292 200.41015625 697.33984375 C197.86144723 700.15292453 195.34159675 702.98328909 192.90385342 705.89319801 C191 708 191 708 188.73470402 709.95120811 C183.47563974 714.79321803 181.19340204 718.891092 180.87974548 726.03604126 C180.80341441 729.24620282 180.8402333 732.44830032 180.88647461 735.65869141 C180.87919915 737.46214404 180.86797593 739.26558434 180.85315037 741.06899071 C180.82443621 745.87573956 180.8493748 750.6807735 180.88584137 755.4874115 C180.91187848 760.00640897 180.88898183 764.52465828 180.87023926 769.04370117 C180.84377532 782.23745996 180.89535229 795.431282 180.9375 808.625 C180.958125 838.11875 180.97875 867.6125 181 898 C121.27 898 61.54 898 0 898 C0 601.66 0 305.32 0 0 Z " fill="#299757" transform="translate(4039,2109)"/>
<path d="M0 0 C0.66525381 -0.00282738 1.33050762 -0.00565475 2.01592064 -0.00856781 C5.55415594 -0.02344523 9.09235185 -0.03274012 12.63061523 -0.03710938 C15.4758016 -0.04144068 18.32067556 -0.055138 21.16577148 -0.078125 C77.9325422 -0.52681126 135.24591526 7.99234965 186.63671875 33.203125 C187.49604004 33.62319824 188.35536133 34.04327148 189.24072266 34.47607422 C223.86316187 51.58117013 255.8715177 76.62928058 279.63671875 107.203125 C280.51349722 108.25936695 281.39393453 109.31257877 282.27734375 110.36328125 C302.2057074 134.2705335 325.4865151 166.97972506 334.63671875 197.203125 C334.44213867 199.18334961 334.44213867 199.18334961 333.63671875 201.203125 C331.80517578 202.50830078 331.80517578 202.50830078 329.39453125 203.6484375 C328.50403076 204.07979004 327.61353027 204.51114258 326.69604492 204.95556641 C325.24355347 205.63498291 325.24355347 205.63498291 323.76171875 206.328125 C321.71791713 207.31598705 319.67495988 208.30559777 317.6328125 209.296875 C316.6104248 209.78929688 315.58803711 210.28171875 314.53466797 210.7890625 C310.58420779 212.71670069 306.70129151 214.75782631 302.82421875 216.828125 C293.9681984 221.53100398 285.05467156 226.11922906 276.13671875 230.703125 C263.10908451 237.40000471 263.10908451 237.40000471 250.13671875 244.203125 C241.58873465 248.73027345 232.98825718 253.15390834 224.38671875 257.578125 C214.41907192 262.70613361 204.45376507 267.83809049 194.51171875 273.015625 C193.60131836 273.4885498 192.69091797 273.96147461 191.75292969 274.44873047 C188.01736055 276.3976921 184.32674169 278.37005675 180.70703125 280.52734375 C177.63671875 282.203125 177.63671875 282.203125 174.63671875 282.203125 C174.27658691 281.24780884 174.27658691 281.24780884 173.90917969 280.27319336 C163.73472314 253.51379836 151.87607133 228.22866885 131.71875 207.5234375 C129.63671875 205.203125 129.63671875 205.203125 128.63671875 202.203125 C127.3145606 201.51456124 125.9789261 200.85174019 124.63671875 200.203125 C123.12637214 198.862449 121.65030978 197.48272239 120.19921875 196.078125 C92.7489946 171.03581525 53.91414307 165.87907878 18.32421875 165.765625 C17.40576172 165.75936096 16.48730469 165.75309692 15.54101562 165.74664307 C-23.99927151 165.57618034 -62.22615569 176.30526383 -93.67578125 200.765625 C-94.25086426 201.21268799 -94.82594727 201.65975098 -95.41845703 202.12036133 C-98.3501912 204.44865326 -101.05050257 206.85196815 -103.65625 209.54296875 C-106.36328125 212.203125 -106.36328125 212.203125 -108.36328125 212.203125 C-108.76740234 213.10611328 -108.76740234 213.10611328 -109.1796875 214.02734375 C-110.3736826 216.22224564 -111.44898644 217.37210051 -113.30078125 219.015625 C-143.21615292 248.24686135 -154.86868612 294.14421585 -159.36328125 334.203125 C-159.45223034 334.95330147 -159.54117943 335.70347794 -159.63282394 336.47638702 C-160.57465646 345.36959975 -160.5190175 354.25913344 -160.52441406 363.18945312 C-160.52905144 364.98960978 -160.53407732 366.78976546 -160.53945923 368.58992004 C-160.55250514 373.45662847 -160.55901398 378.32332315 -160.56346989 383.19004631 C-160.56641604 386.24452265 -160.57052384 389.29899536 -160.57497406 392.35346985 C-160.58863452 401.94991902 -160.5983057 411.54635976 -160.60217595 421.14281797 C-160.60663958 432.14469044 -160.6241144 443.14643761 -160.65317655 454.14827204 C-160.67496332 462.69916606 -160.68488935 471.2500253 -160.68621707 479.80094671 C-160.68725395 484.88501163 -160.69291726 489.9689586 -160.71103668 495.05299377 C-160.90283678 552.18777766 -154.67191911 615.16379081 -112.85400391 658.38598633 C-110.64779357 660.6795275 -109.38675293 662.13270996 -108.36328125 665.203125 C-107.0377122 665.88509928 -105.70261569 666.54859808 -104.36328125 667.203125 C-102.68361295 668.68650485 -101.04162061 670.21296131 -99.42578125 671.765625 C-93.52535378 677.26118961 -87.18548555 681.89794211 -80.36328125 686.203125 C-79.76950684 686.57824219 -79.17573242 686.95335938 -78.56396484 687.33984375 C-61.95302339 697.64311095 -43.41241244 704.09472304 -24.36328125 708.203125 C-23.27829346 708.44869141 -23.27829346 708.44869141 -22.17138672 708.69921875 C4.78233833 714.5244489 36.89056599 713.55311874 63.63671875 707.203125 C64.42143555 707.02120605 65.20615234 706.83928711 66.01464844 706.65185547 C102.76339791 697.80844673 132.93831944 673.60975108 154.63671875 643.203125 C155.10883789 642.54828125 155.58095703 641.8934375 156.06738281 641.21875 C168.22927913 624.18088604 177.67122384 605.52786441 185.63671875 586.203125 C189.29381054 587.57613118 192.59262683 589.22618728 195.96875 591.1875 C197.00193359 591.785625 198.03511719 592.38375 199.09960938 593 C200.20498047 593.64453125 201.31035156 594.2890625 202.44921875 594.953125 C203.61637818 595.63048113 204.7836985 596.30756012 205.95117188 596.984375 C209.51582681 599.05248614 213.07669897 601.12704766 216.63671875 603.203125 C218.19398682 604.11094727 218.19398682 604.11094727 219.78271484 605.03710938 C223.72035161 607.33347485 227.65739477 609.63084847 231.59301758 611.93066406 C238.92625972 616.2137435 246.27780762 620.46432227 253.63671875 624.703125 C262.97251455 630.08063208 272.28817264 635.4912311 281.58886719 640.92919922 C287.8977882 644.61476258 294.22234898 648.27197848 300.55688477 651.91333008 C309.8013722 657.22930009 319.03180482 662.5675714 328.19921875 668.015625 C329.04452148 668.51336426 329.88982422 669.01110352 330.76074219 669.52392578 C331.52547852 669.98138184 332.29021484 670.43883789 333.078125 670.91015625 C334.07888062 671.50534058 334.07888062 671.50534058 335.09985352 672.11254883 C336.63671875 673.203125 336.63671875 673.203125 337.63671875 675.203125 C336.74731445 677.40771484 336.74731445 677.40771484 335.3125 680.1640625 C334.78462891 681.18290527 334.25675781 682.20174805 333.71289062 683.25146484 C333.13087891 684.3492627 332.54886719 685.44706055 331.94921875 686.578125 C331.35560547 687.70557129 330.76199219 688.83301758 330.15039062 689.99462891 C306.87768457 733.78861854 275.36539799 777.80153539 235.63671875 808.203125 C234.63511719 809.02167969 233.63351562 809.84023437 232.6015625 810.68359375 C217.16069838 823.27263186 200.32972475 834.07061903 182.63671875 843.203125 C181.91935547 843.57743652 181.20199219 843.95174805 180.46289062 844.33740234 C146.76748768 861.719593 109.10879439 870.73345936 71.63671875 875.203125 C70.87781342 875.2952829 70.11890808 875.3874408 69.33700562 875.48239136 C53.55090077 877.33197112 37.78175048 877.547108 21.90893555 877.51879883 C19.11840588 877.51419213 16.32831476 877.52101733 13.5378418 877.53930664 C-76.6229532 878.12377573 -166.05463566 852.4752278 -247.36328125 779.203125 C-255.58122563 770.93250149 -263.01847343 762.15821954 -270.07226562 752.88378906 C-271.30947936 751.27316514 -272.57795064 749.68669812 -273.84765625 748.1015625 C-329.94200419 677.53701652 -351.87641582 582.54805008 -357.36328125 491.203125 C-357.42112793 490.32865723 -357.47897461 489.45418945 -357.53857422 488.55322266 C-363.25776738 401.03429349 -354.00483744 309.38575824 -311.36328125 201.203125 C-310.95996582 200.31141602 -310.55665039 199.41970703 -310.14111328 198.50097656 C-288.91985433 151.81591756 -256.55711902 105.43801298 -215.36328125 74.203125 C-214.08088633 73.19416183 -212.79973894 72.18361195 -211.51953125 71.171875 C-152.15723251 24.58958165 -75.21440895 0.2548423 0 0 Z " fill="#299757" transform="translate(2146.36328125,2144.796875)"/>
<path d="M0 0 C1.24979141 -0.00570007 2.49958282 -0.01140015 3.7872467 -0.01727295 C6.42871264 -0.02667775 9.07019008 -0.03323884 11.71166992 -0.03710938 C15.65235034 -0.0435697 19.59264514 -0.07772592 23.53320312 -0.109375 C65.34699663 -0.28443579 107.36000374 6.17345032 145.78515625 23.203125 C146.63529297 23.57808105 147.48542969 23.95303711 148.36132812 24.33935547 C167.50545792 32.88304611 185.21450813 43.36692509 201.78515625 56.203125 C202.68363281 56.88890625 203.58210938 57.5746875 204.5078125 58.28125 C219.67495977 70.10729827 234.08633967 83.93309073 245.78515625 99.203125 C246.39858887 99.99396484 246.39858887 99.99396484 247.02441406 100.80078125 C258.66638449 115.88023807 268.82771694 132.11690044 276.91748047 149.37060547 C277.75563544 151.14077744 278.63111643 152.89312708 279.5078125 154.64453125 C295.67952915 187.61420415 303.91133171 224.72980306 309.03515625 260.890625 C309.26174927 262.47000854 309.26174927 262.47000854 309.49291992 264.08129883 C314.59756423 302.50864659 312.78515625 340.19813945 312.78515625 379.203125 C177.81515625 379.203125 42.84515625 379.203125 -96.21484375 379.203125 C-94.57959859 420.08425399 -89.79060502 456.64957361 -62.21484375 488.203125 C-61.56386719 488.94949219 -60.91289062 489.69585938 -60.2421875 490.46484375 C-39.39060249 512.79747592 -5.63010173 522.95579505 24.13412476 524.30999756 C26.6067429 524.36640324 29.077551 524.3938859 31.55078125 524.40625 C32.46486755 524.41195007 33.37895386 524.41765015 34.32073975 524.42352295 C36.25027329 524.4329177 38.17982248 524.43948477 40.109375 524.44335938 C42.98598327 524.45296087 45.8618432 524.48399407 48.73828125 524.515625 C87.84050123 524.73982488 121.51221805 513.40537888 152.78515625 490.203125 C153.37570801 489.76709961 153.96625977 489.33107422 154.57470703 488.88183594 C170.65533403 476.94848988 185.79287126 463.52081197 199.78515625 449.203125 C203.73604166 450.5200868 205.24744342 453.05703701 207.66015625 456.265625 C208.64845164 457.55177195 209.63808831 458.8368891 210.62890625 460.12109375 C211.14582031 460.79317871 211.66273438 461.46526367 212.1953125 462.15771484 C214.79842229 465.5067403 217.47785276 468.79242463 220.16015625 472.078125 C220.97274902 473.07573853 220.97274902 473.07573853 221.80175781 474.09350586 C223.46184161 476.13090369 225.12328421 478.16718563 226.78515625 480.203125 C233.46612636 488.38790081 240.11885385 496.5871623 246.62158203 504.91455078 C250.66449726 510.07960512 254.80377476 515.16329634 258.95141602 520.24438477 C262.42408797 524.50623028 265.84358642 528.80430806 269.22265625 533.140625 C274.09524116 539.3934271 279.12235789 545.51266396 284.19116211 551.60717773 C284.75971924 552.29239502 285.32827637 552.9776123 285.9140625 553.68359375 C286.6731189 554.59467896 286.6731189 554.59467896 287.44750977 555.52416992 C290.8249727 559.76341295 290.8249727 559.76341295 290.60546875 562.1875 C289.64051602 564.55852672 288.53610246 565.72018815 286.66015625 567.453125 C284.14328064 569.85305487 281.8247657 572.28278246 279.59765625 574.953125 C270.90658582 584.97682623 260.36806861 593.27822106 249.78515625 601.203125 C249.14481445 601.68394531 248.50447266 602.16476562 247.84472656 602.66015625 C231.65792432 614.70688782 214.06590417 624.68885956 195.78515625 633.203125 C194.55369873 633.77861084 194.55369873 633.77861084 193.29736328 634.36572266 C146.61925015 655.94697232 94.14287981 667.22756976 42.71875 667.40625 C41.40520035 667.41195007 40.0916507 667.41765015 38.73829651 667.42352295 C35.96753567 667.43394043 33.19680296 667.43984055 30.42602539 667.44335938 C27.65049806 667.44770343 24.87528872 667.46145387 22.09985352 667.484375 C-2.15843981 667.68031613 -26.13546615 666.30311599 -49.96484375 661.453125 C-51.24794434 661.19708496 -52.53104492 660.94104492 -53.85302734 660.67724609 C-115.53663636 648.1079829 -176.79708426 615.12138204 -215.21484375 564.203125 C-215.7257959 563.54151367 -216.23674805 562.87990234 -216.76318359 562.19824219 C-225.09829541 551.39038845 -232.4699066 540.33814341 -239.02587891 528.36669922 C-240.10379809 526.40519619 -241.20675765 524.46093671 -242.3203125 522.51953125 C-268.13788618 476.8026347 -277.98740048 422.88855754 -282.21484375 371.203125 C-282.3228833 369.94508057 -282.3228833 369.94508057 -282.43310547 368.66162109 C-289.64289472 281.3983098 -274.25087475 184.96964579 -210.69335938 95.63110352 C-198.47911688 81.34051719 -185.11226104 67.42463486 -169.84619141 56.38574219 C-168.18545458 55.18181983 -166.54949609 53.9489535 -164.9140625 52.7109375 C-118.37176686 17.93111238 -57.75179037 0.2101686 0 0 Z M-54.21484375 157.203125 C-55.28798828 158.05777344 -55.28798828 158.05777344 -56.3828125 158.9296875 C-78.26467636 177.13229991 -89.3561073 204.84976906 -94.21484375 232.203125 C-94.44042969 233.45867188 -94.66601562 234.71421875 -94.8984375 236.0078125 C-96.79427752 248.58573039 -96.21484375 260.17015351 -96.21484375 273.203125 C-22.95484375 273.203125 50.30515625 273.203125 125.78515625 273.203125 C126.09752945 246.87349246 126.09752945 246.87349246 122.78515625 221.203125 C122.62418457 220.41615234 122.46321289 219.62917969 122.29736328 218.81835938 C116.31300006 190.78785501 102.62758127 163.19719833 78.10546875 147.16796875 C59.96427641 136.4326514 41.0943182 132.77112622 20.28515625 132.828125 C19.53703674 132.82866882 18.78891724 132.82921265 18.01812744 132.82977295 C-8.94053708 132.91969991 -33.19797888 139.60582315 -54.21484375 157.203125 Z " fill="#299757" transform="translate(3576.21484375,2354.796875)"/>
<path d="M0 0 C1.24979141 -0.00570007 2.49958282 -0.01140015 3.7872467 -0.01727295 C6.42871264 -0.02667775 9.07019008 -0.03323884 11.71166992 -0.03710938 C15.65235034 -0.0435697 19.59264514 -0.07772592 23.53320312 -0.109375 C65.34699663 -0.28443579 107.36000374 6.17345032 145.78515625 23.203125 C146.63529297 23.57808105 147.48542969 23.95303711 148.36132812 24.33935547 C167.50545792 32.88304611 185.21450813 43.36692509 201.78515625 56.203125 C202.68363281 56.88890625 203.58210938 57.5746875 204.5078125 58.28125 C219.67495977 70.10729827 234.08633967 83.93309073 245.78515625 99.203125 C246.39858887 99.99396484 246.39858887 99.99396484 247.02441406 100.80078125 C258.66638449 115.88023807 268.82771694 132.11690044 276.91748047 149.37060547 C277.75563544 151.14077744 278.63111643 152.89312708 279.5078125 154.64453125 C295.67952915 187.61420415 303.91133171 224.72980306 309.03515625 260.890625 C309.26174927 262.47000854 309.26174927 262.47000854 309.49291992 264.08129883 C314.59756423 302.50864659 312.78515625 340.19813945 312.78515625 379.203125 C177.81515625 379.203125 42.84515625 379.203125 -96.21484375 379.203125 C-94.57959859 420.08425399 -89.79060502 456.64957361 -62.21484375 488.203125 C-61.56386719 488.94949219 -60.91289062 489.69585938 -60.2421875 490.46484375 C-39.39060249 512.79747592 -5.63010173 522.95579505 24.13412476 524.30999756 C26.6067429 524.36640324 29.077551 524.3938859 31.55078125 524.40625 C32.46486755 524.41195007 33.37895386 524.41765015 34.32073975 524.42352295 C36.25027329 524.4329177 38.17982248 524.43948477 40.109375 524.44335938 C42.98598327 524.45296087 45.8618432 524.48399407 48.73828125 524.515625 C87.84050123 524.73982488 121.51221805 513.40537888 152.78515625 490.203125 C153.37570801 489.76709961 153.96625977 489.33107422 154.57470703 488.88183594 C170.65533403 476.94848988 185.79287126 463.52081197 199.78515625 449.203125 C203.73604166 450.5200868 205.24744342 453.05703701 207.66015625 456.265625 C208.64845164 457.55177195 209.63808831 458.8368891 210.62890625 460.12109375 C211.14582031 460.79317871 211.66273438 461.46526367 212.1953125 462.15771484 C214.79842229 465.5067403 217.47785276 468.79242463 220.16015625 472.078125 C220.97274902 473.07573853 220.97274902 473.07573853 221.80175781 474.09350586 C223.46184161 476.13090369 225.12328421 478.16718563 226.78515625 480.203125 C233.46612636 488.38790081 240.11885385 496.5871623 246.62158203 504.91455078 C250.66449726 510.07960512 254.80377476 515.16329634 258.95141602 520.24438477 C262.42408797 524.50623028 265.84358642 528.80430806 269.22265625 533.140625 C274.09524116 539.3934271 279.12235789 545.51266396 284.19116211 551.60717773 C284.75971924 552.29239502 285.32827637 552.9776123 285.9140625 553.68359375 C286.6731189 554.59467896 286.6731189 554.59467896 287.44750977 555.52416992 C290.8249727 559.76341295 290.8249727 559.76341295 290.60546875 562.1875 C289.64051602 564.55852672 288.53610246 565.72018815 286.66015625 567.453125 C284.14328064 569.85305487 281.8247657 572.28278246 279.59765625 574.953125 C270.90658582 584.97682623 260.36806861 593.27822106 249.78515625 601.203125 C249.14481445 601.68394531 248.50447266 602.16476562 247.84472656 602.66015625 C231.65792432 614.70688782 214.06590417 624.68885956 195.78515625 633.203125 C194.55369873 633.77861084 194.55369873 633.77861084 193.29736328 634.36572266 C146.61925015 655.94697232 94.14287981 667.22756976 42.71875 667.40625 C41.40520035 667.41195007 40.0916507 667.41765015 38.73829651 667.42352295 C35.96753567 667.43394043 33.19680296 667.43984055 30.42602539 667.44335938 C27.65049806 667.44770343 24.87528872 667.46145387 22.09985352 667.484375 C-2.15843981 667.68031613 -26.13546615 666.30311599 -49.96484375 661.453125 C-51.24794434 661.19708496 -52.53104492 660.94104492 -53.85302734 660.67724609 C-115.53663636 648.1079829 -176.79708426 615.12138204 -215.21484375 564.203125 C-215.7257959 563.54151367 -216.23674805 562.87990234 -216.76318359 562.19824219 C-225.09829541 551.39038845 -232.4699066 540.33814341 -239.02587891 528.36669922 C-240.10379809 526.40519619 -241.20675765 524.46093671 -242.3203125 522.51953125 C-268.13788618 476.8026347 -277.98740048 422.88855754 -282.21484375 371.203125 C-282.3228833 369.94508057 -282.3228833 369.94508057 -282.43310547 368.66162109 C-289.64289472 281.3983098 -274.25087475 184.96964579 -210.69335938 95.63110352 C-198.47911688 81.34051719 -185.11226104 67.42463486 -169.84619141 56.38574219 C-168.18545458 55.18181983 -166.54949609 53.9489535 -164.9140625 52.7109375 C-118.37176686 17.93111238 -57.75179037 0.2101686 0 0 Z M-54.21484375 157.203125 C-55.28798828 158.05777344 -55.28798828 158.05777344 -56.3828125 158.9296875 C-78.26467636 177.13229991 -89.3561073 204.84976906 -94.21484375 232.203125 C-94.44042969 233.45867188 -94.66601562 234.71421875 -94.8984375 236.0078125 C-96.79427752 248.58573039 -96.21484375 260.17015351 -96.21484375 273.203125 C-22.95484375 273.203125 50.30515625 273.203125 125.78515625 273.203125 C126.09752945 246.87349246 126.09752945 246.87349246 122.78515625 221.203125 C122.62418457 220.41615234 122.46321289 219.62917969 122.29736328 218.81835938 C116.31300006 190.78785501 102.62758127 163.19719833 78.10546875 147.16796875 C59.96427641 136.4326514 41.0943182 132.77112622 20.28515625 132.828125 C19.53703674 132.82866882 18.78891724 132.82921265 18.01812744 132.82977295 C-8.94053708 132.91969991 -33.19797888 139.60582315 -54.21484375 157.203125 Z " fill="#299757" transform="translate(2869.21484375,2354.796875)"/>
</svg>
